<svg xmlns="http://www.w3.org/2000/svg" xmlns:xlink="http://www.w3.org/1999/xlink" width="1920" zoomAndPan="magnify" viewBox="0 0 1440 809.999993" height="1080" preserveAspectRatio="xMidYMid meet" version="1.0"><rect x="-144" width="1728" fill="#ffffff" y="-80.999999" height="971.999992" fill-opacity="1"/><rect x="-144" width="1728" fill="#fff1e7" y="-80.999999" height="971.999992" fill-opacity="1"/><path fill="#fff1e7" d="M -58.523438 201.835938 C -58.523438 201.835938 37.609375 102.269531 -58.523438 51.667969 L -58.523438 0.746094 L -10.054688 -90.121094 L -58.523438 -104.953125 L -58.523438 -161.070312 L -46.796875 -173.402344 L 15.285156 -179.347656 L 224.101562 -179.347656 C 291.402344 -171.53125 417.296875 -132.671875 417.296875 -132.671875 C 417.296875 -132.671875 461.5625 -112.246094 535.015625 -179.347656 L 577.765625 -179.347656 C 577.765625 -179.347656 589.261719 -122.460938 661.925781 -179.347656 L 701.542969 -179.347656 L 722.0625 -148 L 807.734375 -179.347656 L 1021.371094 -179.347656 C 1021.371094 -179.347656 1163.039062 -93.519531 1238.59375 -179.347656 L 1329.121094 -179.347656 L 1406.511719 -113.945312 L 1487.445312 -179.347656 L 1523.628906 -179.347656 L 1523.628906 -81.238281 L 1487.429688 129.742188 L 1523.628906 161.308594 L 1523.628906 290.785156 L 1476.304688 438.832031 L 1523.628906 497.222656 L 1523.628906 614.230469 L 1476.304688 726.203125 L 1523.628906 776.757812 L 1523.628906 845.851562 L 1487.429688 921.234375 L 1523.628906 958.347656 L 1523.628906 1007.265625 L 1312.109375 1007.265625 L 1144.636719 977.414062 L 1108.296875 1007.265625 L 1060.664062 1007.265625 L 1021.355469 975.714844 L 959.785156 1007.265625 L 890.890625 1007.265625 L 875.285156 953.699219 C 875.285156 953.699219 774.824219 1007.265625 765.632812 1007.265625 L 715.972656 1007.265625 L 596.0625 975.960938 L 481.988281 1007.265625 L 394.613281 1007.265625 L 327.046875 975.960938 L 305.679688 1007.265625 L 269.386719 1007.265625 L 244.308594 982.527344 L 219.265625 1007.265625 L 192.179688 1007.265625 L 175.523438 975.960938 C 175.523438 975.960938 139.769531 1007.265625 130.113281 1007.265625 L 105.59375 1007.265625 L 59.734375 953.699219 L 0.171875 1007.265625 L -58.523438 1007.265625 L -58.523438 965.164062 L -21.613281 696.488281 L -58.523438 659.378906 L -58.523438 516.257812 L -32.195312 395.140625 L -58.523438 358.832031 Z M -58.523438 201.835938 " fill-opacity="1" fill-rule="nonzero"/><path fill="#86d4f2" d="M -58.523438 516.257812 L -58.523438 358.832031 C 65.144531 37.070312 291.726562 110.183594 396.175781 317.144531 C 508.457031 539.648438 543.777344 581.382812 652.148438 242.394531 C 769.21875 -200.886719 936.238281 -203.128906 1026.488281 -87.757812 C 1119.933594 31.707031 1232.445312 384.121094 1329.121094 -179.347656 L 1487.441406 -179.347656 C 1245.730469 581.582031 1067.136719 155.992188 1012.78125 50.929688 C 953.28125 -64.070312 791.804688 -20.097656 684.035156 315.398438 C 576.253906 650.910156 543.019531 711.617188 424.804688 492.261719 C 306.589844 272.910156 241.898438 192.597656 113.085938 263.25 C 23.242188 312.523438 -32.8125 442.25 -58.523438 516.257812 Z M 234.28125 917.1875 C 227.4375 927.460938 222.183594 970.058594 219.265625 1007.265625 L 269.402344 1007.265625 C 259.480469 959.382812 243.367188 903.558594 234.28125 917.1875 Z M 1523.628906 845.851562 C 1280.125 922.609375 1032.359375 666.285156 1020.957031 687.652344 C 1010.589844 707.089844 1012.890625 874.511719 959.785156 1007.265625 L 1060.664062 1007.265625 C 1070.691406 894.523438 1055.425781 813.203125 1063.847656 808.382812 C 1073.859375 802.667969 1335.65625 1014.480469 1523.628906 958.332031 Z M 1523.628906 845.851562 " fill-opacity="1" fill-rule="nonzero"/><path fill="#ea4e68" d="M -58.523438 201.835938 L -58.523438 51.667969 C 124.8125 -83.277344 331.621094 -42.164062 413.339844 116.160156 C 524.738281 332.007812 521.960938 156.550781 590.421875 23.503906 C 623.53125 -40.847656 652.703125 -116.25 701.542969 -179.363281 L 807.734375 -179.363281 C 591.84375 -43.832031 597.945312 459.863281 521.371094 438.152344 C 444.78125 416.429688 412.722656 139.277344 235.578125 85.800781 C 115.171875 49.476562 0.0507812 139.027344 -58.523438 201.835938 Z M 1148.300781 -4.972656 C 1193.292969 101.714844 1228.070312 -55.03125 1238.59375 -179.347656 L 1021.355469 -179.347656 C 1075.109375 -139.839844 1119.113281 -74.175781 1148.300781 -4.972656 Z M 244.789062 696.691406 C 197.585938 572.066406 167.582031 713.671875 130.097656 1007.265625 L 192.164062 1007.265625 C 204.0625 890.132812 217.472656 743.644531 235.550781 810.546875 C 245.992188 849.144531 271.054688 942.929688 305.679688 1007.265625 L 394.613281 1007.265625 C 335.746094 932.453125 285.160156 803.269531 244.789062 696.691406 Z M 982.066406 634.5 C 1012.039062 532.558594 1253.582031 922.8125 1523.628906 776.757812 L 1523.628906 614.230469 C 1351.136719 734.128906 1173.871094 673.253906 1064.234375 557.804688 C 962.984375 451.179688 940.195312 399.652344 927.214844 496.28125 C 915.132812 586.34375 907.191406 844.832031 765.648438 1007.265625 L 890.890625 1007.265625 C 967.125 885.390625 960.265625 719.25 982.066406 634.5 Z M 982.066406 634.5 " fill-opacity="1" fill-rule="nonzero"/><path fill="#5547de" d="M -58.523438 0.761719 L -58.523438 -104.953125 C 2.210938 -130.554688 264.503906 -236.484375 420.292969 4.636719 C 485.21875 107.136719 504.253906 -41.21875 577.75 -179.347656 L 661.910156 -179.347656 C 545.96875 -26.679688 505.410156 251.957031 452.324219 134.71875 C 329.953125 -113.097656 138.085938 -117.808594 -58.523438 0.761719 Z M 872.304688 559.320312 C 919.167969 291.867188 941.429688 329.582031 991.550781 413.957031 C 1036.46875 489.605469 1273.804688 753.9375 1523.628906 497.222656 L 1523.628906 290.785156 C 1378.671875 542.679688 1171.414062 517.386719 1058.113281 399.15625 C 961.546875 298.417969 919.152344 108.667969 854.859375 326.957031 C 820.1875 444.675781 805.664062 664.644531 671.722656 859.449219 C 504.066406 1046.527344 385.050781 781.191406 324.960938 645.65625 C 264.875 510.125 207.535156 407.050781 121.753906 573.488281 C 50.371094 711.941406 10.480469 928.898438 0.171875 1007.265625 L 105.59375 1007.265625 C 136.773438 619.886719 219.621094 500.792969 270.035156 652.75 C 324.234375 807.007812 398.707031 933.796875 473.058594 1007.265625 L 715.988281 1007.265625 C 785.625 923.707031 847.953125 767.871094 872.304688 559.320312 Z M 872.304688 559.320312 " fill-opacity="1" fill-rule="nonzero"/><path fill="#ffa7b8" d="M 15.285156 -179.347656 C -19.417969 -172.953125 -45.746094 -165.195312 -58.523438 -161.070312 L -58.523438 -179.347656 Z M 432.824219 -40.789062 C 459.722656 3.277344 490.144531 6.988281 535 -179.347656 L 224.101562 -179.347656 C 299.980469 -162.648438 376.226562 -122.9375 432.824219 -40.789062 Z M -58.523438 965.164062 L -58.523438 659.378906 C 70.304688 206.886719 253.425781 254.136719 344.507812 438.167969 C 461.390625 674.304688 582.140625 841.464844 675.152344 519.546875 C 819.617188 19.578125 922.070312 -42.410156 1018.792969 134.734375 C 1123.996094 327.402344 1294.046875 540.667969 1523.628906 -81.238281 L 1523.628906 161.308594 C 1227.761719 690.558594 1043.808594 323.863281 986.347656 213.097656 C 925.671875 96.121094 846.378906 130.40625 767.84375 439.867188 C 689.304688 749.332031 652.148438 900.949219 510.910156 812.972656 C 393.902344 740.078125 289.84375 305 154.726562 413.957031 C 44.886719 496.929688 -26.0625 795.203125 -58.523438 965.164062 Z M 1312.109375 1007.265625 L 1108.296875 1007.265625 C 1105.332031 960.527344 1103.910156 908.890625 1109.921875 900.933594 C 1116.996094 891.585938 1202.53125 964.699219 1312.109375 1007.265625 Z M 1312.109375 1007.265625 " fill-opacity="1" fill-rule="nonzero"/></svg>